<?xml version="1.0" standalone="no"?>
<!DOCTYPE svg PUBLIC "-//W3C//DTD SVG 1.1//EN" "http://www.w3.org/Graphics/SVG/1.1/DTD/svg11.dtd">
<svg width="300" height="500" version="1.1" xmlns="http://www.w3.org/2000/svg">
  <desc>Picviz image</desc>

/* Axes */
<line x1="50" y1="15" x2="50" y2="500" stroke="black" stroke-width="0.1"/>
<text style="fill:black;font-size:8px;font-family:Courier 10 Pitch" x="42" y="10">Time</text>
<line x1="100" y1="0" x2="100" y2="15" stroke="black" stroke-width="0.1"/>
<line x1="150" y1="15" x2="150" y2="500" stroke="black" stroke-width="0.1"/>
<text style="fill:black;font-size:8px;font-family:Courier 10 Pitch" x="138" y="10">Number</text>
<line x1="200" y1="0" x2="200" y2="15" stroke="black" stroke-width="0.1"/>
<line x1="250" y1="15" x2="250" y2="500" stroke="black" stroke-width="0.1"/>
<text style="fill:black;font-size:8px;font-family:Courier 10 Pitch" x="232" y="10">My string</text>
<line x1="300" y1="0" x2="300" y2="15" stroke="black" stroke-width="0.1"/>
<line x1="0" y1="15" x2="300" y2="15" stroke="black" stroke-width="0.1"/>

/* Lines */
<line x1="50" y1="15" x2="150" y2="46" stroke="#000000" stroke-width="0.1"/>
<line x1="150" y1="46" x2="250" y2="78" stroke="#000000" stroke-width="0.1"/>
<line x1="50" y1="257" x2="150" y2="46" stroke="#FF0000" stroke-width="0.1"/>
<line x1="150" y1="46" x2="250" y2="81" stroke="#FF0000" stroke-width="0.1"/>
<line x1="50" y1="318" x2="150" y2="355" stroke="#0000FF" stroke-width="0.1"/>
<line x1="150" y1="355" x2="250" y2="143" stroke="#0000FF" stroke-width="0.1"/>
</svg>
